<?xml version="1.0" encoding="utf-8"?>
<!-- Generator: Adobe Illustrator 23.0.3, SVG Export Plug-In . SVG Version: 6.00 Build 0)  -->
<svg version="1.1" id="Calque_1" xmlns="http://www.w3.org/2000/svg" xmlns:xlink="http://www.w3.org/1999/xlink" x="0px" y="0px"
	 viewBox="0 0 60 60" style="enable-background:new 0 0 60 60;" xml:space="preserve">
<style type="text/css">
	.st0{fill:none;stroke:#2C2C54;stroke-width:7;stroke-miterlimit:10;}
	.st1{fill:none;stroke:#2C2C54;stroke-width:7;stroke-linejoin:bevel;stroke-miterlimit:10;}
</style>
<g>
	<path class="st0" d="M2.74,10.76c0,0,2.45-2.43,4.84-2.07c2.35,0.33,2.92,3.49,2.92,3.49l0,15.55"/>
	<path class="st1" d="M10.5,12.18c0,0,1.51-3.54,5.43-3.55c4.94-0.01,4.05,15.61,8.7,15.61c5.02,0,10.63-15.62,10.63-15.62v46.77"/>
	<path class="st1" d="M35.33,12.19c0,0,1.51-3.54,5.43-3.55c4.94-0.01,4.05,15.61,8.7,15.61c2.46,0,5.07-3.76,7.08-7.59"/>
</g>
<g>
	<path class="st1" d="M10.5,12.18c0,0,1.51-3.54,5.43-3.55c4.94-0.01,4.05,15.61,8.7,15.61c5.02,0,10.63-15.62,10.63-15.62v46.77"/>
	<path class="st1" d="M35.33,12.19c0,0,1.51-3.54,5.43-3.55c4.94-0.01,4.05,15.61,8.7,15.61c2.46,0,5.07-3.76,7.08-7.59"/>
</g>
</svg>
